<?xml version="1.0" encoding="UTF-8"?>
<svg version="1.1" xmlns="http://www.w3.org/2000/svg" width="453" height="453">
<path d="M0 0 C0.99 0 1.98 0 3 0 C3.5576001 1.00244751 3.5576001 1.00244751 4.12646484 2.02514648 C13.46080825 18.79955725 13.46080825 18.79955725 23.10131836 35.39868164 C26.93270986 41.86053464 30.6875856 48.36558234 34.4375 54.875 C35.08581787 56.000271 35.73413574 57.12554199 36.40209961 58.28491211 C37.67942207 60.50208127 38.95668583 62.71928425 40.23388672 64.93652344 C42.65013238 69.12771095 45.07412423 73.31438132 47.5 77.5 C50.5125682 82.69834501 53.51982307 87.89968993 56.51953125 93.10546875 C57.13957031 94.18103027 57.75960938 95.2565918 58.3984375 96.36474609 C59.66947829 98.57123399 60.93902206 100.77858494 62.20703125 102.98681641 C65.45870924 108.63977197 68.74631806 114.26593786 72.10546875 119.85546875 C73.08616333 121.49866089 73.08616333 121.49866089 74.08666992 123.17504883 C75.3382782 125.26830259 76.59979153 127.35567361 77.87231445 129.4362793 C78.43007568 130.3725415 78.98783691 131.30880371 79.5625 132.2734375 C80.05878906 133.09247559 80.55507813 133.91151367 81.06640625 134.75537109 C82 137 82 137 81.75732422 139.16772461 C78.41907147 147.24431614 67.67060633 153.75503777 61 159 C60.46793945 159.41958984 59.93587891 159.83917969 59.38769531 160.27148438 C55.6271073 163.22954831 51.82884731 166.13078784 48 169 C47.12601563 169.66 46.25203125 170.32 45.3515625 171 C44.57554687 171.556875 43.79953125 172.11375 43 172.6875 C42.34 173.16574219 41.68 173.64398438 41 174.13671875 C38.2617847 175.31864372 36.81889785 174.8779551 34 174 C32.56884766 172.37133789 32.56884766 172.37133789 31.4140625 170.22265625 C30.96554932 169.41151367 30.51703613 168.60037109 30.05493164 167.76464844 C29.5830542 166.87293945 29.11117676 165.98123047 28.625 165.0625 C27.57549779 163.1516407 26.52465147 161.24151919 25.47265625 159.33203125 C24.91594238 158.31061035 24.35922852 157.28918945 23.78564453 156.23681641 C20.63375388 150.52342206 17.33949219 144.89218529 14.0625 139.25 C12.8231157 137.11001346 11.58478699 134.96941512 10.34765625 132.828125 C9.7767627 131.84134766 9.20586914 130.85457031 8.61767578 129.83789062 C6.69752749 126.46937211 4.85327358 123.06327232 3.04077148 119.63574219 C2.08895544 117.83008034 2.08895544 117.83008034 0 117 C-0.41620605 118.09284302 -0.41620605 118.09284302 -0.84082031 119.20776367 C-1.92815665 121.82694348 -3.14897015 124.21122742 -4.546875 126.67578125 C-5.05476562 127.57361328 -5.56265625 128.47144531 -6.0859375 129.39648438 C-6.90964844 130.83991211 -6.90964844 130.83991211 -7.75 132.3125 C-8.32492188 133.32505859 -8.89984375 134.33761719 -9.4921875 135.38085938 C-14.18789492 143.62883898 -18.96839836 151.82625089 -23.76660156 160.01489258 C-27.74103037 166.80848249 -31.6424728 173.63943512 -35.5 180.5 C-42.20055423 192.41141432 -49.08029438 204.21484413 -56 216 C-56.52384277 216.89235352 -57.04768555 217.78470703 -57.58740234 218.70410156 C-60.38737806 223.47189553 -63.19151073 228.23721636 -66 233 C-25.41854827 227.44804645 14.42541746 210.58586822 47.55859375 186.6171875 C50 185 50 185 52 185 C51.5671728 189.87832329 49.14197648 192.6672447 46 196.1875 C45.5059668 196.75557373 45.01193359 197.32364746 44.50292969 197.90893555 C43.01278186 199.61589749 41.50925096 201.30992179 40 203 C39.18015625 203.92039062 38.3603125 204.84078125 37.515625 205.7890625 C36.03068282 207.44298086 34.54124909 209.09288 33.046875 210.73828125 C31.1749031 212.80673875 29.3313661 214.89560914 27.5 217 C21.72466621 223.61756997 15.92468098 230.16795959 9.6484375 236.31640625 C8.00057803 237.99940965 6.50715088 239.75315389 5 241.5625 C-2.40548716 250.1602538 -11.25079719 257.79062846 -19.859375 265.1640625 C-21.65633984 266.70525498 -23.43164872 268.2657189 -25.203125 269.8359375 C-43.12088431 285.62209706 -58.67466185 289.95238572 -82.09765625 293.0703125 C-83.235979 293.22935059 -84.37430176 293.38838867 -85.54711914 293.55224609 C-87.88923641 293.85596122 -90.2386322 294.10726786 -92.59155273 294.31103516 C-98.54189126 294.76424858 -98.54189126 294.76424858 -103.73022461 297.36474609 C-105.07336283 299.22022633 -106.00197816 301.03473847 -106.9375 303.125 C-107.73065934 304.66010362 -108.52639228 306.1938793 -109.32421875 307.7265625 C-109.7423584 308.56477539 -110.16049805 309.40298828 -110.59130859 310.26660156 C-113.26875568 315.46186977 -116.28801379 320.46349663 -119.25 325.5 C-120.11806274 327.00264404 -120.11806274 327.00264404 -121.00366211 328.53564453 C-122.64655375 331.37111359 -124.31966467 334.18660382 -126 337 C-126.49822266 337.87398438 -126.99644531 338.74796875 -127.50976562 339.6484375 C-127.99638672 340.45539063 -128.48300781 341.26234375 -128.984375 342.09375 C-129.39913086 342.80208984 -129.81388672 343.51042969 -130.24121094 344.24023438 C-135.00946728 349.01113828 -142.28370338 348.23546864 -148.55914307 348.25224304 C-149.7822821 348.24505753 -151.00542114 348.23787201 -152.265625 348.23046875 C-153.53597595 348.23001053 -154.8063269 348.22955231 -156.11517334 348.2290802 C-158.79143918 348.2260669 -161.46735533 348.21929394 -164.14355469 348.20581055 C-167.57224247 348.18875291 -171.00078295 348.18499866 -174.42950821 348.18575573 C-177.70822836 348.18541864 -180.98691765 348.17658513 -184.265625 348.16796875 C-186.11247894 348.16629951 -186.11247894 348.16629951 -187.99664307 348.16459656 C-189.13502625 348.15821671 -190.27340942 348.15183685 -191.44628906 348.14526367 C-192.44887756 348.14145187 -193.45146606 348.13764008 -194.48443604 348.13371277 C-197 348 -197 348 -200 347 C-199.52497444 341.79847012 -197.59624791 338.30829932 -194.75 334.0625 C-190.41017901 327.36397675 -186.39640101 320.52781892 -182.5 313.5625 C-178.76655583 306.90158556 -175.01862559 300.25626584 -171.125 293.6875 C-166.98349904 286.69967385 -162.92284198 279.66746411 -158.875 272.625 C-153.67420186 263.58239632 -148.40002548 254.58752136 -143.0625 245.625 C-135.88147528 233.55825925 -128.89816719 221.38725815 -121.95397949 209.18362427 C-113.33158205 194.03691059 -104.59507345 178.95892299 -95.70019531 163.97070312 C-91.58808774 157.02883952 -87.5714486 150.03614717 -83.58251953 143.02294922 C-79.82711297 136.42740158 -76.01871254 129.86427392 -72.1875 123.3125 C-67.26317889 114.89123671 -62.36865653 106.45356928 -57.5 98 C-52.69153732 89.65198313 -47.86090321 81.31759122 -43 73 C-33.94653715 57.50410835 -24.95796972 41.97041511 -16.08764648 26.36889648 C-2.52620883 2.52620883 -2.52620883 2.52620883 0 0 Z " fill="#111E60" transform="translate(222,62)"/>
<path d="M0 0 C0.12590306 5.48768966 -0.2663156 10.58283019 -1.28515625 15.984375 C-1.42147964 16.74104462 -1.55780304 17.49771423 -1.69825745 18.27731323 C-1.99317766 19.91285794 -2.29097339 21.54788627 -2.59136963 23.18243408 C-3.40968146 27.64206923 -4.20312026 32.10611279 -4.99609375 36.5703125 C-5.16197998 37.50277802 -5.32786621 38.43524353 -5.4987793 39.39596558 C-7.33516265 49.78536883 -8.98712463 60.202777 -10.625 70.625 C-10.91681147 72.47674092 -11.20872156 74.3284663 -11.50073242 76.18017578 C-11.6432695 77.08406036 -11.78580658 77.98794495 -11.93266296 78.91921997 C-12.07347794 79.81212738 -12.21429291 80.70503479 -12.359375 81.625 C-12.49805496 82.50509735 -12.63673492 83.3851947 -12.77961731 84.29196167 C-14.00952872 92.08655641 -15.26377527 99.87694659 -16.55096436 107.66229248 C-16.86649392 109.57347804 -17.17865512 111.48521875 -17.49072266 113.39697266 C-17.67683105 114.5163623 -17.86293945 115.63575195 -18.0546875 116.7890625 C-18.21437012 117.75537598 -18.37405273 118.72168945 -18.53857422 119.71728516 C-19 122 -19 122 -20 124 C-24.61618206 122.56967037 -27.05419638 120.2236277 -30.34375 116.73828125 C-31.35245686 115.69166419 -32.36158403 114.64545207 -33.37109375 113.59960938 C-34.94366954 111.95237196 -36.51104837 110.30074586 -38.07080078 108.64135742 C-39.58618135 107.03550991 -41.1195812 105.44873044 -42.65625 103.86328125 C-43.56181641 102.90719971 -44.46738281 101.95111816 -45.40039062 100.96606445 C-47.81898414 98.70802832 -47.81898414 98.70802832 -50.72094727 99.09155273 C-53.48763 100.19437292 -54.60798253 101.41593934 -56.4375 103.75 C-59.35270952 107.30114075 -62.46471632 110.05393027 -66 113 C-67.14437094 114.27453636 -68.2681163 115.56777536 -69.375 116.875 C-72.25315859 120.24119417 -75.28517301 123.1180772 -78.6640625 125.97265625 C-80.96731356 127.97163167 -83.1749436 130.05410059 -85.38305664 132.15698242 C-92.47036162 138.86547025 -99.99360765 144.74196194 -107.89208984 150.46142578 C-110.00411066 152.00300039 -112.09117492 153.57395038 -114.17578125 155.15234375 C-126.18527608 164.15672548 -138.91384106 171.67328238 -152 179 C-152.70721191 179.40057617 -153.41442383 179.80115234 -154.14306641 180.21386719 C-174.44607009 191.67822264 -196.04407853 200.28789655 -218 208 C-219.08474609 208.39848145 -220.16949219 208.79696289 -221.28710938 209.20751953 C-222.86975586 209.77188721 -222.86975586 209.77188721 -224.484375 210.34765625 C-225.42506836 210.68933838 -226.36576172 211.03102051 -227.33496094 211.38305664 C-230.27146029 212.06284172 -232.12285092 211.80532798 -235 211 C-233.38800343 206.66320924 -230.03419898 204.07006114 -226.6875 201.0625 C-218.94572809 193.94698924 -211.44628146 186.59916867 -203.99893188 179.17819214 C-202.7220803 177.90677371 -201.44329233 176.63729659 -200.16244507 175.36990356 C-193.34075576 168.61616935 -186.78814754 161.86473764 -180.86499023 154.29589844 C-179.03050699 152.03755567 -177.09188932 150.01941826 -175 148 C-171.11413053 144.2216447 -167.73898383 140.13722514 -164.34765625 135.9140625 C-161.95900165 132.94911021 -159.51649982 130.03600449 -157.0625 127.125 C-153.587005 122.96624206 -150.2239359 118.74672271 -146.9375 114.4375 C-139.68226542 104.92583915 -132.13803083 96.07957394 -123.62330627 87.67460632 C-121.35975955 85.43815753 -119.10181572 83.19608416 -116.84399414 80.95385742 C-115.65991826 79.77984221 -114.47405397 78.60762789 -113.28637695 77.43725586 C-103.58711396 68.54761211 -103.58711396 68.54761211 -96 58 C-95.57164221 54.18457444 -95.57164221 54.18457444 -97.2578125 52.5 C-97.87398437 52.005 -98.49015625 51.51 -99.125 51 C-99.84042969 50.40445313 -100.55585938 49.80890625 -101.29296875 49.1953125 C-102.18628906 48.47085938 -103.07960938 47.74640625 -104 47 C-106.49294815 44.97452343 -108.96782825 42.92876015 -111.4375 40.875 C-112.06479004 40.37226563 -112.69208008 39.86953125 -113.33837891 39.3515625 C-117.79717071 35.6389558 -117.79717071 35.6389558 -118.91015625 32.1328125 C-118.93980469 31.42898437 -118.96945312 30.72515625 -119 30 C-113.11106603 27.2349799 -107.17246371 25.62200965 -100.8671875 24.06640625 C-99.7772197 23.79217331 -98.68725189 23.51794037 -97.56425476 23.23539734 C-95.22052689 22.64604855 -92.87618014 22.05915649 -90.53128052 21.4744873 C-84.33664293 19.92935673 -78.1468141 18.36522828 -71.95703125 16.80078125 C-70.70419846 16.48442719 -69.45136566 16.16807312 -68.16056824 15.84213257 C-54.04431704 12.26797243 -39.97789197 8.51223305 -25.91552734 4.73266602 C-24.58785088 4.37589531 -24.58785088 4.37589531 -23.23335266 4.01191711 C-21.6095524 3.5751094 -19.98598319 3.13744126 -18.36271667 2.69865417 C-16.93231357 2.31298879 -15.50098962 1.93071759 -14.06863403 1.55236816 C-12.65036298 1.1736604 -11.23579047 0.78090395 -9.82467651 0.37634277 C-6.12637189 -0.64406295 -3.66087523 -1.13760097 0 0 Z " fill="#1BA277" transform="translate(431,132)"/>
<path d="M0 0 C3.84246801 1.8160021 5.10105689 5.09920187 6.93359375 8.7421875 C7.80562834 10.39219564 8.68079955 12.04054871 9.55859375 13.6875 C10.0278125 14.57469727 10.49703125 15.46189453 10.98046875 16.37597656 C13.67515909 21.36080644 16.56129152 26.23325932 19.43359375 31.1171875 C20.64481787 33.18472795 21.85575789 35.25243486 23.06640625 37.3203125 C23.65067383 38.31740234 24.23494141 39.31449219 24.83691406 40.34179688 C27.17552391 44.34179699 29.49270304 48.35400721 31.80859375 52.3671875 C38.18247689 63.39785421 44.63763391 74.38096613 51.08666992 85.36778259 C53.82710629 90.03729681 56.56274934 94.70960096 59.296875 99.3828125 C60.46484184 101.37831241 61.63288782 103.37376596 62.80096436 105.36920166 C63.55147045 106.65169876 64.30167766 107.93437081 65.05157471 109.21722412 C66.09346043 110.99946323 67.13645433 112.78104939 68.1796875 114.5625 C68.77322021 115.57715332 69.36675293 116.59180664 69.97827148 117.63720703 C71.09992529 119.51607187 72.2822961 121.35899103 73.49609375 123.1796875 C73.49609375 124.4996875 73.49609375 125.8196875 73.49609375 127.1796875 C65.12485993 127.29572513 56.75396413 127.38447443 48.38212395 127.43874836 C44.49436843 127.4648022 40.6071646 127.50012115 36.71972656 127.55688477 C32.96549207 127.61135802 29.21178695 127.64113972 25.45718765 127.65407372 C24.02744339 127.66328642 22.59772692 127.68127738 21.16820908 127.70833778 C8.5593253 127.93744888 8.5593253 127.93744888 4.71777344 124.8659668 C1.2492812 120.67214041 1.2492812 120.67214041 0.14453125 118.7109375 C-0.40980591 117.74812866 -0.40980591 117.74812866 -0.9753418 116.76586914 C-1.35601807 116.0774292 -1.73669434 115.38898926 -2.12890625 114.6796875 C-2.55147705 113.93904053 -2.97404785 113.19839355 -3.40942383 112.43530273 C-4.31686455 110.842365 -5.21914873 109.24648055 -6.11669922 107.64794922 C-7.49557982 105.19450275 -8.88954325 102.75031855 -10.2890625 100.30859375 C-12.26963229 96.85252977 -14.24603419 93.39414698 -16.21875 89.93359375 C-29.61278844 66.24479058 -29.61278844 66.24479058 -43.8671875 43.0703125 C-46.26647274 39.21166819 -47.47882718 36.6839311 -46.50390625 32.1796875 C-43.57606242 29.46849601 -40.21586019 27.49811849 -36.81640625 25.4296875 C-34.87667248 24.1962141 -32.93916643 22.95923045 -31.00390625 21.71875 C-29.58464844 20.81624512 -29.58464844 20.81624512 -28.13671875 19.89550781 C-24.73853655 17.6808913 -21.50502168 15.30878633 -18.31640625 12.8046875 C-17.32253906 12.02738281 -16.32867187 11.25007813 -15.3046875 10.44921875 C-13.40555327 8.91031082 -11.52832179 7.34404895 -9.671875 5.75390625 C-8.79144531 5.00753906 -7.91101563 4.26117188 -7.00390625 3.4921875 C-6.25109375 2.82832031 -5.49828125 2.16445313 -4.72265625 1.48046875 C-2.50390625 0.1796875 -2.50390625 0.1796875 0 0 Z " fill="#132061" transform="translate(350.50390625,281.8203125)"/>
<path d="M0 0 C0.1259031 5.48769148 -0.26634146 10.58283044 -1.28515625 15.984375 C-1.42170624 16.74240417 -1.55825623 17.50043335 -1.69894409 18.28143311 C-1.99408263 19.91835298 -2.292105 21.55475504 -2.59274292 23.19067383 C-3.40363725 27.60858081 -4.19061888 32.03072108 -4.9765625 36.453125 C-5.22384346 37.84253296 -5.22384346 37.84253296 -5.47612 39.26000977 C-7.43057674 50.31832686 -9.18918494 61.4075411 -10.9375 72.5 C-11.09251984 73.48222534 -11.24753967 74.46445068 -11.40725708 75.47644043 C-12.27581671 80.9836233 -13.13998455 86.49147663 -14 92 C-14.33 92 -14.66 92 -15 92 C-14.90561964 88.01607456 -14.79935195 84.03265105 -14.68261719 80.04931641 C-14.62603877 78.03694667 -14.57855912 76.02432773 -14.53125 74.01171875 C-14.49257813 72.72910156 -14.45390625 71.44648438 -14.4140625 70.125 C-14.3826416 68.95195312 -14.3512207 67.77890625 -14.31884766 66.5703125 C-14.02641103 63.29573883 -13.38269052 60.32606638 -12.53353882 57.15673828 C-11.53301839 53.11230772 -10.97081729 48.99081136 -10.34375 44.875 C-10.19595093 43.92866699 -10.04815186 42.98233398 -9.89587402 42.00732422 C-9.42711875 39.00540899 -8.96297374 36.00281197 -8.5 33 C-7.88960144 29.04100206 -7.27438201 25.08279702 -6.65625 21.125 C-6.51973022 20.22894043 -6.38321045 19.33288086 -6.24255371 18.40966797 C-5.42538418 13.18076901 -4.3618127 8.11495664 -3 3 C-8.06609591 3.45232999 -12.15439618 4.32770914 -16.84765625 6.2421875 C-20.09237474 7.38461107 -23.41345744 7.91430617 -26.80078125 8.47265625 C-29.27073833 8.9310406 -29.27073833 8.9310406 -32 11 C-34.234375 11.5625 -34.234375 11.5625 -36.75 12 C-39.71913706 12.54256174 -42.42978628 13.13785598 -45.3125 14.0625 C-50.80631104 15.45923162 -56.35405081 15.67737433 -62 16 C-62 15.34 -62 14.68 -62 14 C-61.06019287 13.75878418 -60.12038574 13.51756836 -59.15209961 13.26904297 C-56.34095884 12.54744839 -53.52995218 11.82533341 -50.71899414 11.10302734 C-47.52193862 10.28157858 -44.32445947 9.46180531 -41.12670898 8.64306641 C-33.97261368 6.8091565 -26.82302389 4.96582816 -19.6953125 3.03125 C-18.64351807 2.74781738 -17.59172363 2.46438477 -16.50805664 2.17236328 C-14.58838868 1.65270845 -12.67076969 1.12540549 -10.75561523 0.58935547 C-9.90942627 0.36135254 -9.0632373 0.13334961 -8.19140625 -0.1015625 C-7.47154541 -0.30088379 -6.75168457 -0.50020508 -6.01000977 -0.70556641 C-3.73096674 -1.03940898 -2.17772631 -0.69684795 0 0 Z " fill="#308B69" transform="translate(431,132)"/>
<path d="M0 0 C-26.60348412 15.89045318 -53.71768637 28.71447259 -83 39 C-84.62711914 39.59772217 -84.62711914 39.59772217 -86.28710938 40.20751953 C-87.34220703 40.58376465 -88.39730469 40.96000977 -89.484375 41.34765625 C-90.89541504 41.86017944 -90.89541504 41.86017944 -92.33496094 42.38305664 C-95.27146029 43.06284172 -97.12285092 42.80532798 -100 42 C-98.49650623 38.33213607 -96.36271208 36.31089607 -93.375 33.75 C-92.55773437 33.04359375 -91.74046875 32.3371875 -90.8984375 31.609375 C-90.27195313 31.07828125 -89.64546875 30.5471875 -89 30 C-88.67 30.66 -88.34 31.32 -88 32 C-89.4375 34.625 -89.4375 34.625 -91 37 C-89.06213915 36.52229477 -87.12472326 36.04278429 -85.1875 35.5625 C-84.10855469 35.29566406 -83.02960938 35.02882813 -81.91796875 34.75390625 C-79.9259157 34.23922588 -77.95188476 33.65062825 -76 33 C-75.67 32.34 -75.34 31.68 -75 31 C-70.98963934 29.23544131 -66.81581112 28.1311125 -62.5 27.4375 C-61.2625 27.2209375 -61.2625 27.2209375 -60 27 C-59.67 26.34 -59.34 25.68 -59 25 C-56.98195535 24.51176339 -54.96312505 24.02607814 -52.9375 23.5703125 C-50.60434513 22.88353707 -49.4882862 21.90169903 -48 20 C-45.29120665 18.64560332 -42.99066732 18.93498549 -40 19 C-39.505 17.515 -39.505 17.515 -39 16 C-36.85546875 14.61328125 -36.85546875 14.61328125 -34.1875 13.3125 C-33.31480469 12.87550781 -32.44210937 12.43851562 -31.54296875 11.98828125 C-29 11 -29 11 -25 11 C-23.98921928 10.01089822 -22.98992519 9.00997431 -22 8 C-19.73828125 7.26953125 -19.73828125 7.26953125 -17.3125 6.8125 C-16.10013672 6.57466797 -16.10013672 6.57466797 -14.86328125 6.33203125 C-13.94095703 6.16767578 -13.94095703 6.16767578 -13 6 C-12.896875 5.38125 -12.79375 4.7625 -12.6875 4.125 C-12 2 -12 2 -9 0 C-5.55625563 -0.97131252 -3.40538196 -0.96160467 0 0 Z " fill="#155B40" transform="translate(296,301)"/>
<path d="M0 0 C0.33 0 0.66 0 1 0 C1.41250162 5.35960788 -0.4048511 7.4134017 -3.70507812 11.42236328 C-7.70271624 15.91247639 -11.91475742 20.17257257 -16.18994141 24.39575195 C-17.7666585 25.95396298 -19.33497674 27.52028001 -20.90234375 29.08789062 C-30.86304723 39 -30.86304723 39 -36 39 C-36.0928125 40.11375 -36.0928125 40.11375 -36.1875 41.25 C-37 44 -37 44 -39.4375 45.9375 C-42.5521916 48.4444469 -42.78106197 50.26700229 -44 54 C-46.1208742 56.33839976 -48.33208691 58.40629948 -50.6875 60.5 C-52.15379919 61.99943028 -52.15379919 61.99943028 -52.875 64.3125 C-54.55360041 68.32248987 -56.76263247 72.02057148 -60.8828125 73.82421875 C-62.5657779 74.30457932 -64.28252744 74.66324068 -66 75 C-61.73147671 69.19006552 -57.26858457 63.55527896 -52.75488281 57.93579102 C-48.6871638 52.86875142 -44.65992828 47.77141251 -40.65356445 42.65576172 C-39.43711526 41.10273913 -38.21861246 39.55132572 -37 38 C-36.1028125 36.78183594 -36.1028125 36.78183594 -35.1875 35.5390625 C-32.75732423 32.71832277 -30.10235913 30.42893606 -27.27880859 28.01220703 C-22.93843085 24.17961721 -18.89622902 20.03950074 -14.8125 15.9375 C-13.93658203 15.06544922 -13.06066406 14.19339844 -12.15820312 13.29492188 C-6.87064219 8.00463565 -6.87064219 8.00463565 -1.94921875 2.37890625 C-1.30597656 1.59386719 -0.66273438 0.80882812 0 0 Z " fill="#249D74" transform="translate(334,192)"/>
<path d="M0 0 C0.99 0 1.98 0 3 0 C5.80255323 2.9063515 6 3.78825048 6 8 C6.66 8 7.32 8 8 8 C8.53109375 9.00160156 9.0621875 10.00320313 9.609375 11.03515625 C10.32285987 12.37763436 11.03640475 13.72008057 11.75 15.0625 C12.27207031 16.04766602 12.27207031 16.04766602 12.8046875 17.05273438 C14.5664041 20.36410909 16.36425594 23.63759267 18.265625 26.87109375 C20 30 20 30 20 32 C20.66 32 21.32 32 22 32 C22 33.32 22 34.64 22 36 C22.66 36 23.32 36 24 36 C25.47265625 38.08203125 25.47265625 38.08203125 27.0625 40.8125 C27.85333984 42.15248047 27.85333984 42.15248047 28.66015625 43.51953125 C30 46 30 46 31 49 C63.175 49.495 63.175 49.495 96 50 C96.495 49.01 96.495 49.01 97 48 C97 49.32 97 50.64 97 52 C88.62876618 52.11603763 80.25787038 52.20478693 71.8860302 52.25906086 C67.99827468 52.2851147 64.11107085 52.32043365 60.22363281 52.37719727 C56.46939832 52.43167052 52.7156932 52.46145222 48.9610939 52.47438622 C47.53134964 52.48359892 46.10163317 52.50158988 44.67211533 52.52865028 C32.06323155 52.75776138 32.06323155 52.75776138 28.22167969 49.6862793 C24.75318745 45.49245291 24.75318745 45.49245291 23.6484375 43.53125 C23.092771 42.56614502 23.092771 42.56614502 22.52587891 41.58154297 C22.14608887 40.89463379 21.76629883 40.20772461 21.375 39.5 C20.96040527 38.77312988 20.54581055 38.04625977 20.11865234 37.29736328 C19.21932535 35.71830854 18.32514472 34.13631409 17.43554688 32.55175781 C15.91372132 29.84663524 14.37308348 27.15291061 12.828125 24.4609375 C10.30742425 20.06743307 7.79338449 15.67028856 5.29394531 11.26464844 C4.45933912 9.80393013 3.61557601 8.3483877 2.76074219 6.89941406 C0 2.20445566 0 2.20445566 0 0 Z " fill="#050931" transform="translate(327,357)"/>
<path d="M0 0 C-0.4328272 4.87832329 -2.85802352 7.6672447 -6 11.1875 C-6.4940332 11.75557373 -6.98806641 12.32364746 -7.49707031 12.90893555 C-8.98721814 14.61589749 -10.49074904 16.30992179 -12 18 C-12.81984375 18.92039062 -13.6396875 19.84078125 -14.484375 20.7890625 C-15.96931718 22.44298086 -17.45875091 24.09288 -18.953125 25.73828125 C-20.8250969 27.80673875 -22.6686339 29.89560914 -24.5 32 C-30.27533379 38.61756997 -36.07531902 45.16795959 -42.3515625 51.31640625 C-43.99942197 52.99940965 -45.49284912 54.75315389 -47 56.5625 C-50.63323101 60.77771309 -54.63677019 64.56799233 -58.6875 68.375 C-59.66879883 69.30421265 -59.66879883 69.30421265 -60.66992188 70.25219727 C-61.29833984 70.83670654 -61.92675781 71.42121582 -62.57421875 72.0234375 C-63.13713623 72.54856934 -63.70005371 73.07370117 -64.2800293 73.61474609 C-66.09121198 75.07346157 -67.88909382 76.03790004 -70 77 C-69.82701599 74.66471585 -69.29774631 73.30822418 -67.66796875 71.62109375 C-63.42788462 68 -63.42788462 68 -61 68 C-61 67.34 -61 66.68 -61 66 C-60.34 66 -59.68 66 -59 66 C-58.71125 65.38125 -58.4225 64.7625 -58.125 64.125 C-57 62 -57 62 -55 60 C-54.01 60 -53.02 60 -52 60 C-52 59.34 -52 58.68 -52 58 C-51.34 58 -50.68 58 -50 58 C-50 57.34 -50 56.68 -50 56 C-49.34 56 -48.68 56 -48 56 C-47.6596875 54.9171875 -47.6596875 54.9171875 -47.3125 53.8125 C-45.72668125 50.41431697 -43.73876676 48.54769001 -41 46 C-40.113125 45.071875 -39.22625 44.14375 -38.3125 43.1875 C-36 41 -36 41 -34 41 C-33.89558594 40.15695312 -33.89558594 40.15695312 -33.7890625 39.296875 C-32.69414938 36.10970215 -30.81052724 34.56043974 -28.375 32.25 C-21.7586472 25.82187914 -15.95785653 19.10766834 -10.48046875 11.6875 C-9.99191406 11.130625 -9.50335938 10.57375 -9 10 C-8.34 10 -7.68 10 -7 10 C-6.67 8.68 -6.34 7.36 -6 6 C-6.79265259 6.50599731 -6.79265259 6.50599731 -7.60131836 7.0222168 C-10.04500678 8.58000487 -12.49123271 10.13376508 -14.9375 11.6875 C-15.76830078 12.21794922 -16.59910156 12.74839844 -17.45507812 13.29492188 C-32.75694977 23 -32.75694977 23 -36 23 C-36 22.34 -36 21.68 -36 21 C-34.88625 20.40574219 -33.7725 19.81148438 -32.625 19.19921875 C-23.71465831 14.38064111 -15.18621386 9.31765192 -6.953125 3.4050293 C-2.18571461 0 -2.18571461 0 0 0 Z " fill="#04082D" transform="translate(274,247)"/>
<path d="M0 0 C0.33 0 0.66 0 1 0 C1.33203125 2.12890625 1.33203125 2.12890625 1 5 C-0.71494844 7.16333904 -2.3612993 9.01582566 -4.3125 10.9375 C-8.43137993 15.054914 -8.43137993 15.054914 -11.44921875 20 C-13.47119414 23.91152922 -16.19460017 26.22249461 -19.5 29.0625 C-23.4559807 32.48780036 -26.39048649 35.40839699 -29 40 C-30.75636964 42.11797516 -32.52112096 44.16075927 -34.375 46.1875 C-34.84421875 46.72052734 -35.3134375 47.25355469 -35.796875 47.80273438 C-38.63862003 50.92315882 -40.95311429 52.78526316 -45 54 C-46.093125 54.37125 -47.18625 54.7425 -48.3125 55.125 C-49.6428125 55.558125 -49.6428125 55.558125 -51 56 C-45.13256071 48.87733738 -38.56009956 42.53098968 -31.96289062 36.08984375 C-26.59960138 30.7924807 -21.66563175 25.35154538 -16.99584961 19.43115234 C-15.07303813 17.08896804 -13.05351824 14.97851103 -10.875 12.875 C-7.29566892 9.41761006 -4.30912043 5.68109179 -1.34765625 1.6875 C-0.68056641 0.8521875 -0.68056641 0.8521875 0 0 Z " fill="#2D906F" transform="translate(267,267)"/>
<path d="M0 0 C1.13998037 2.78066123 1.07452758 3.8188278 -0.08886719 6.64697266 C-0.65250977 7.6426123 -1.21615234 8.63825195 -1.796875 9.6640625 C-2.73285522 11.3346875 -2.73285522 11.3346875 -3.68774414 13.0390625 C-4.37470932 14.23463566 -5.06213752 15.42994287 -5.75 16.625 C-6.44271096 17.84854248 -7.13468293 19.07250361 -7.82592773 20.296875 C-12.60271303 28.7212997 -17.58495502 37.01253946 -22.6953125 45.23828125 C-25.18164595 49.25707816 -27.47377757 53.36579272 -29.68359375 57.54296875 C-33.38920324 64.45937341 -37.44700542 71.18330289 -41.4375 77.9375 C-41.99759766 78.88818359 -42.55769531 79.83886719 -43.13476562 80.81835938 C-44.74842701 83.55047451 -46.3727222 86.27597875 -48 89 C-48.47969238 89.8161377 -48.95938477 90.63227539 -49.45361328 91.47314453 C-50.58017635 93.34992342 -51.78232951 95.18101074 -53 97 C-53.66 97 -54.32 97 -55 97 C-53.37756192 90.88779617 -50.14511593 85.82136541 -46.9375 80.4375 C-46.32406738 79.39682373 -45.71063477 78.35614746 -45.07861328 77.28393555 C-43.75267103 75.03468189 -42.42446045 72.7867642 -41.09423828 70.54003906 C-37.86819343 65.0909942 -34.66519729 59.62840592 -31.4619751 54.16592407 C-30.73594964 52.92796281 -30.00967099 51.69015001 -29.28314209 50.45248413 C-24.17280071 41.74633218 -19.12111071 33.00883255 -14.13134766 24.23291016 C-9.50565789 16.10512088 -4.76637875 8.04590041 0 0 Z " fill="#080B36" transform="translate(153,180)"/>
<path d="M0 0 C0 3 0 3 -1.7734375 4.8046875 C-14.00695208 14.54006697 -26.61812074 23.89423613 -40 32 C-39.50886719 33.15048828 -39.50886719 33.15048828 -39.0078125 34.32421875 C-37.96339506 37.09718753 -37.83244197 39.06773447 -38 42 C-37.34 42 -36.68 42 -36 42 C-35.32845067 43.28913487 -34.66291141 44.58140204 -34 45.875 C-33.62875 46.59429687 -33.2575 47.31359375 -32.875 48.0546875 C-32 50 -32 50 -32 52 C-31.01 52.33 -30.02 52.66 -29 53 C-24.54106504 59.39810719 -21.86043412 66.47666555 -20 74 C-22.11545132 72.00885364 -23.67816454 70.09917972 -25.12890625 67.5859375 C-25.51965332 66.9153833 -25.91040039 66.2448291 -26.31298828 65.55395508 C-26.72532715 64.8348999 -27.13766602 64.11584473 -27.5625 63.375 C-28.44598805 61.8446902 -29.33012235 60.31475335 -30.21484375 58.78515625 C-30.66972168 57.9977002 -31.12459961 57.21024414 -31.59326172 56.39892578 C-32.99103769 54.01528353 -34.42734122 51.65980357 -35.87890625 49.30859375 C-36.339021 48.55465332 -36.79913574 47.80071289 -37.27319336 47.02392578 C-38.15589297 45.57991404 -39.04825054 44.14174955 -39.95141602 42.71044922 C-41.71111875 39.80323749 -42.93931594 37.21171996 -43.87890625 33.93359375 C-42.34804434 28.82391687 -37.69551408 26.91674229 -33.3125 24.25 C-31.37404206 23.01787134 -29.43783838 21.78218897 -27.50390625 20.54296875 C-26.55789551 19.94145996 -25.61188477 19.33995117 -24.63720703 18.72021484 C-19.16342439 15.1497397 -14.10328302 11.07538772 -9 7 C-7.23082244 5.62287021 -5.46015863 4.24764602 -3.6875 2.875 C-2.45804313 1.91703899 -1.22874903 0.95886875 0 0 Z " fill="#03082F" transform="translate(347,283)"/>
<path d="M0 0 C0.33 0 0.66 0 1 0 C1.602537 6.02536998 1.602537 6.02536998 -0.11328125 8.80078125 C-1.34621853 10.25599455 -2.66808933 11.63479157 -4 13 C-1.38454087 14.30772957 0.57466426 14.14618604 3.50366211 14.17358398 C4.65503159 14.18707382 5.80640106 14.20056366 6.99266052 14.21446228 C8.24160599 14.22490067 9.49055145 14.23533905 10.77734375 14.24609375 C13.40039405 14.27902547 16.02344084 14.31223723 18.64648438 14.34570312 C22.79870393 14.39424475 26.95094939 14.4380466 31.10327148 14.47680664 C35.09894128 14.51467497 39.09434713 14.56797868 43.08984375 14.62109375 C44.33676498 14.6295079 45.58368622 14.63792206 46.86839294 14.64659119 C48.02291458 14.66323318 49.17743622 14.67987518 50.36694336 14.69702148 C51.38461288 14.70732895 52.40228241 14.71763641 53.45079041 14.72825623 C56 15 56 15 59 17 C54.96248722 17.75585109 51.14773109 18.12615412 47.04223633 18.12939453 C45.89116898 18.13254669 44.74010162 18.13569885 43.55415344 18.13894653 C41.71170296 18.13591019 41.71170296 18.13591019 39.83203125 18.1328125 C37.9243824 18.13424759 37.9243824 18.13424759 35.97819519 18.13571167 C33.29605677 18.13639099 30.61401003 18.13505891 27.93188477 18.13037109 C24.49533095 18.12465694 21.05885496 18.12796849 17.62230396 18.13394356 C14.33804358 18.1384237 11.05379264 18.13528878 7.76953125 18.1328125 C6.53515823 18.13483673 5.30078522 18.13686096 4.02900696 18.13894653 C2.88739609 18.13579437 1.74578522 18.13264221 0.56958008 18.12939453 C-0.43602463 18.12859894 -1.44162933 18.12780334 -2.47770691 18.12698364 C-5 18 -5 18 -8 17 C-7.48758619 12.20323738 -6.15186026 9.13539523 -3.5 5.125 C-2.8709375 4.15820312 -2.241875 3.19140625 -1.59375 2.1953125 C-1.0678125 1.47085937 -0.541875 0.74640625 0 0 Z " fill="#040724" transform="translate(30,392)"/>
<path d="M0 0 C2.12588436 2.00076522 3.69766431 3.92861208 5.1640625 6.44921875 C5.55996582 7.1251709 5.95586914 7.80112305 6.36376953 8.49755859 C6.77997559 9.22023926 7.19618164 9.94291992 7.625 10.6875 C8.05796387 11.43338379 8.49092773 12.17926758 8.93701172 12.94775391 C9.84079033 14.50876636 10.74195409 16.07129538 11.640625 17.63525391 C12.5382698 19.19678183 13.43925012 20.75639764 14.34375 22.31396484 C15.61136465 24.49692177 16.86970148 26.68494245 18.125 28.875 C18.51510254 29.54619873 18.90520508 30.21739746 19.30712891 30.90893555 C22 35.65476942 22 35.65476942 22 39 C22.66 39 23.32 39 24 39 C25.1257469 41.08293277 26.25062083 43.16632908 27.375 45.25 C28.00148437 46.41015625 28.62796875 47.5703125 29.2734375 48.765625 C30.12808594 50.36664063 30.12808594 50.36664063 31 52 C31.63808594 53.07507813 31.63808594 53.07507813 32.2890625 54.171875 C33.18593249 56.47811212 32.8182373 57.70893556 32 60 C26.34974675 50.49788111 20.80567802 40.94198458 15.375 31.3125 C14.82328125 30.33514893 14.2715625 29.35779785 13.703125 28.35083008 C11.28153146 24.05777531 8.86561632 19.76176463 6.46484375 15.45703125 C5.74746039 14.17965124 5.03001804 12.90230436 4.3125 11.625 C3.71050781 10.54476562 3.10851562 9.46453125 2.48828125 8.3515625 C1.21555557 5.89252055 1.21555557 5.89252055 -1 5 C-1.33 5.66 -1.66 6.32 -2 7 C-1.125 2.25 -1.125 2.25 0 0 Z " fill="#020524" transform="translate(223,174)"/>
<path d="M0 0 C2.03642129 1.21032586 3.68064157 2.46594383 5.4453125 4.04296875 C6.12851562 4.65269531 6.81171875 5.26242188 7.515625 5.890625 C11.41839396 9.46517945 15.29181006 13.07159315 19.14599609 16.69848633 C19.72430176 17.24013428 20.30260742 17.78178223 20.8984375 18.33984375 C21.4130957 18.82420898 21.92775391 19.30857422 22.45800781 19.80761719 C24.24389499 21.38365451 26.16481953 22.80134902 28.0703125 24.23046875 C29.5553125 16.31046875 29.5553125 16.31046875 31.0703125 8.23046875 C31.4003125 8.23046875 31.7303125 8.23046875 32.0703125 8.23046875 C31.29126922 23.01178993 31.29126922 23.01178993 29.0703125 29.23046875 C24.45413044 27.80013912 22.01611612 25.45409645 18.7265625 21.96875 C17.71785564 20.92213294 16.70872847 19.87592082 15.69921875 18.83007812 C14.12664296 17.18284071 12.55926413 15.53121461 10.99951172 13.87182617 C9.48413115 12.26597866 7.9507313 10.67919919 6.4140625 9.09375 C5.50849609 8.13766846 4.60292969 7.18158691 3.66992188 6.1965332 C1.25233436 3.93104467 1.25233436 3.93104467 -1.63867188 4.36401367 C-3.91313597 5.17973469 -3.91313597 5.17973469 -5.9296875 6.23046875 C-5.9296875 4.58046875 -5.9296875 2.93046875 -5.9296875 1.23046875 C-2.47827162 -0.9882986 -2.47827162 -0.9882986 0 0 Z " fill="#0F3B31" transform="translate(381.9296875,226.76953125)"/>
<path d="M0 0 C0.33 0 0.66 0 1 0 C0.75517172 5.75346461 -1.01827436 8.89790932 -4.3203125 13.55078125 C-9.33289532 20.85982644 -13.10582879 29.05657996 -17 37 C-17.66 37 -18.32 37 -19 37 C-19.24878906 37.84949219 -19.49757813 38.69898438 -19.75390625 39.57421875 C-21.09836957 43.27043923 -22.87229282 46.48922165 -24.9375 49.8125 C-25.28490234 50.39708984 -25.63230469 50.98167969 -25.99023438 51.58398438 C-28.63189003 55.87729668 -28.63189003 55.87729668 -32 57 C-30.70891809 53.60997279 -29.24218459 50.47839169 -27.453125 47.32421875 C-26.94442871 46.42493652 -26.43573242 45.5256543 -25.91162109 44.59912109 C-25.36328613 43.63828613 -24.81495117 42.67745117 -24.25 41.6875 C-23.6823291 40.68799316 -23.1146582 39.68848633 -22.52978516 38.65869141 C-16.11104412 27.38688421 -9.59145281 16.1716849 -3 5 C-2.46584473 4.0733252 -1.93168945 3.14665039 -1.38134766 2.19189453 C-0.92550293 1.46856934 -0.4696582 0.74524414 0 0 Z " fill="#070B36" transform="translate(81,304)"/>
<path d="M0 0 C0.495 1.98 0.495 1.98 1 4 C0.01 4 -0.98 4 -2 4 C-2.0928125 5.11375 -2.0928125 5.11375 -2.1875 6.25 C-3 9 -3 9 -5.4375 10.9375 C-8.5521916 13.4444469 -8.78106197 15.26700229 -10 19 C-12.1208742 21.33839976 -14.33208691 23.40629948 -16.6875 25.5 C-18.15379919 26.99943028 -18.15379919 26.99943028 -18.875 29.3125 C-20.55360041 33.32248987 -22.76263247 37.02057148 -26.8828125 38.82421875 C-28.5657779 39.30457932 -30.28252744 39.66324068 -32 40 C-27.73246558 34.19141148 -23.27211784 28.55652117 -18.75708008 22.94018555 C-14.64641732 17.82301165 -10.58657109 12.66800416 -6.56567383 7.47998047 C-4.50385664 4.83638466 -2.45699477 2.28782464 0 0 Z " fill="#1C6950" transform="translate(300,227)"/>
<path d="M0 0 C-14.69190016 10.67411522 -33.97783636 14.41052765 -52 14 C-49.19612465 12.13074977 -47.8982582 11.61029121 -44.71875 11 C-43.46312256 10.7539502 -43.46312256 10.7539502 -42.18212891 10.50292969 C-41.29702637 10.33696289 -40.41192383 10.17099609 -39.5 10 C-38.59813965 9.82629883 -37.6962793 9.65259766 -36.76708984 9.47363281 C-34.98171085 9.13102003 -33.19575058 8.79142037 -31.40917969 8.45507812 C-29.41927259 8.07919782 -27.43191831 7.68982999 -25.4453125 7.296875 C-20.89664987 6.41486286 -16.66021672 5.74809639 -12 6 C-12 5.34 -12 4.68 -12 4 C-10.390625 2.67578125 -10.390625 2.67578125 -8.25 1.3125 C-7.55390625 0.85488281 -6.8578125 0.39726562 -6.140625 -0.07421875 C-3.60909275 -1.16906025 -2.53899138 -0.9435441 0 0 Z " fill="#05082E" transform="translate(186,341)"/>
<path d="M0 0 C0.56847656 0.7528125 1.13695312 1.505625 1.72265625 2.28125 C3.83848966 4.80718491 5.80651139 6.54783307 8.4375 8.5 C15.19382996 13.75155692 21.0455098 19.87751478 27 26 C26.1875 27.9375 26.1875 27.9375 25 30 C24.01 30.33 23.02 30.66 22 31 C22.2475 29.7315625 22.2475 29.7315625 22.5 28.4375 C21.71642275 23.05040643 18.14047099 21.25023985 14 18 C11.50067671 15.98199143 9.02955769 13.93224326 6.5625 11.875 C5.93520996 11.37210449 5.30791992 10.86920898 4.66162109 10.35107422 C0.22955738 6.66193655 0.22955738 6.66193655 -0.97265625 3.1953125 C-0.98167969 2.47085938 -0.99070312 1.74640625 -1 1 C-0.67 0.67 -0.34 0.34 0 0 Z " fill="#062529" transform="translate(313,161)"/>
<path d="M0 0 C0.33 0.66 0.66 1.32 1 2 C-0.4375 4.625 -0.4375 4.625 -2 7 C-1.21496094 6.7834375 -0.42992187 6.566875 0.37890625 6.34375 C6.06146019 4.8376989 11.11655525 3.59885604 17 4 C13.66250838 7.33749162 9.10082996 8.21244866 4.6875 9.6875 C3.73681641 10.02072266 2.78613281 10.35394531 1.80664062 10.69726562 C0.88431641 11.00728516 -0.03800781 11.31730469 -0.98828125 11.63671875 C-1.82915283 11.92248779 -2.67002441 12.20825684 -3.53637695 12.50268555 C-6.33713372 13.06805484 -8.26100018 12.73298901 -11 12 C-9.49650623 8.33213607 -7.36271208 6.31089607 -4.375 3.75 C-3.14910156 2.69039063 -3.14910156 2.69039063 -1.8984375 1.609375 C-1.27195313 1.07828125 -0.64546875 0.5471875 0 0 Z " fill="#27735B" transform="translate(207,331)"/>
<path d="M0 0 C0 4.4263554 -2.81036461 6.49647882 -5.6875 9.5625 C-6.48317383 10.44711914 -6.48317383 10.44711914 -7.29492188 11.34960938 C-10.29936853 14.58998803 -12.64896509 16.74319769 -17 18 C-18.6396875 18.556875 -18.6396875 18.556875 -20.3125 19.125 C-21.6428125 19.558125 -21.6428125 19.558125 -23 20 C-8.6540404 2.63383838 -8.6540404 2.63383838 0 0 Z " fill="#27906E" transform="translate(239,303)"/>
<path d="M0 0 C0.33 0 0.66 0 1 0 C1.36625971 4.51720311 1.36625971 4.51720311 -0.375 6.8125 C-2 8 -2 8 -4 8 C-4.66 9.32 -5.32 10.64 -6 12 C-6.66 12 -7.32 12 -8 12 C-8.3403125 13.175625 -8.3403125 13.175625 -8.6875 14.375 C-10.37817686 17.75635372 -11.55319915 17.62127966 -15 19 C-17.47732004 21.19977796 -19.74756036 23.57229848 -22 26 C-22.66 25.67 -23.32 25.34 -24 25 C-23.45061768 24.45585449 -22.90123535 23.91170898 -22.33520508 23.35107422 C-19.82495765 20.86173449 -17.31870516 18.36840907 -14.8125 15.875 C-13.94818359 15.0190625 -13.08386719 14.163125 -12.19335938 13.28125 C-6.88269914 8.00546867 -6.88269914 8.00546867 -1.94921875 2.3828125 C-1.30597656 1.59648437 -0.66273438 0.81015625 0 0 Z " fill="#1E5F45" transform="translate(334,192)"/>
<path d="M0 0 C0 3 0 3 -1.7734375 4.8046875 C-7.82764487 9.62260027 -13.9937023 14.26048196 -20.25 18.8125 C-21.00587402 19.36341309 -21.76174805 19.91432617 -22.54052734 20.48193359 C-26.89797532 23.61543305 -31.28934337 26.42658573 -36 29 C-34.49634584 25.00784218 -32.25084852 23.59324345 -28.6875 21.375 C-21.81499677 16.949899 -15.42588832 12.04424058 -9 7 C-7.22962791 5.62440618 -5.45885536 4.24932743 -3.6875 2.875 C-2.45804313 1.91703899 -1.22874903 0.95886875 0 0 Z " fill="#060A36" transform="translate(347,283)"/>
<path d="M0 0 C0.33 0 0.66 0 1 0 C2.33257403 12.66970387 2.33257403 12.66970387 1 18 C0.34 18 -0.32 18 -1 18 C-1.07347656 19.33804688 -1.07347656 19.33804688 -1.1484375 20.703125 C-1.26058594 22.45882812 -1.26058594 22.45882812 -1.375 24.25 C-1.44460938 25.41015625 -1.51421875 26.5703125 -1.5859375 27.765625 C-1.96248308 30.70694334 -2.4774123 32.49949011 -4 35 C-4.66 34.01 -5.32 33.02 -6 32 C-5.67 31.67 -5.34 31.34 -5 31 C-4.72757021 29.64623062 -4.5095322 28.28140002 -4.31640625 26.9140625 C-4.19434814 26.07004883 -4.07229004 25.22603516 -3.9465332 24.35644531 C-3.81980225 23.45506836 -3.69307129 22.55369141 -3.5625 21.625 C-2.51466361 14.38727434 -1.39971515 7.17971535 0 0 Z " fill="#339C78" transform="translate(414,217)"/>
<path d="M0 0 C0.66 0.33 1.32 0.66 2 1 C-1.76202989 8.17325956 -5.65023388 15.26393098 -9.75 22.25 C-10.12632568 22.90556885 -10.50265137 23.5611377 -10.89038086 24.23657227 C-13.65104626 28.88368209 -13.65104626 28.88368209 -17 30 C-15.23749016 25.09648099 -12.71680786 20.66210894 -10.1875 16.125 C-9.76146484 15.34769531 -9.33542969 14.57039063 -8.89648438 13.76953125 C-6.20972782 8.93255652 -3.29925604 4.4424453 0 0 Z " fill="#070B33" transform="translate(222,62)"/>
<path d="M0 0 C-0.99 0.33 -1.98 0.66 -3 1 C-3 1.66 -3 2.32 -3 3 C-8.2620161 4.75400537 -13.20947898 5.3845565 -18.7421875 5.75390625 C-20.96665284 5.7578778 -20.96665284 5.7578778 -22 7 C-24.41462564 7.56832043 -26.81753822 8.08379519 -29.25 8.5625 C-30.25353516 8.77036133 -30.25353516 8.77036133 -31.27734375 8.98242188 C-34.90259375 9.70533519 -38.30312245 10.1647833 -42 10 C-38.18588015 7.78876183 -34.04327697 6.85788891 -29.8046875 5.80078125 C-29.01603302 5.60147507 -28.22737854 5.40216888 -27.41482544 5.19682312 C-25.75290033 4.77847745 -24.09035751 4.36257899 -22.42724609 3.94897461 C-19.87501995 3.31250497 -17.3261901 2.66352704 -14.77734375 2.01367188 C-13.16164931 1.60861245 -11.54576994 1.20428986 -9.9296875 0.80078125 C-9.16510223 0.60503006 -8.40051697 0.40927887 -7.61276245 0.20759583 C-2.22920362 -1.11460181 -2.22920362 -1.11460181 0 0 Z " fill="#2B7A5D" transform="translate(368,148)"/>
<path d="M0 0 C7.63546931 -0.05062418 15.2708955 -0.08570152 22.90649414 -0.10986328 C25.50514341 -0.11993368 28.10378131 -0.13359071 30.70239258 -0.15087891 C34.43313397 -0.17508139 38.16372581 -0.18647266 41.89453125 -0.1953125 C43.06023148 -0.20563507 44.2259317 -0.21595764 45.42695618 -0.22659302 C46.50785019 -0.22674408 47.5887442 -0.22689514 48.70239258 -0.22705078 C49.65503494 -0.231492 50.60767731 -0.23593323 51.58918762 -0.24050903 C54 0 54 0 57 2 C53.29783177 2.87682932 50.13562531 2.99351964 46.39501953 2.54711914 C41.27547345 1.99480998 36.20056618 1.78534391 31.0546875 1.68359375 C30.15879913 1.66281265 29.26291077 1.64203156 28.33987427 1.62062073 C25.51831658 1.55598643 22.69667749 1.49664707 19.875 1.4375 C17.94530457 1.39423256 16.01561693 1.35061587 14.0859375 1.30664062 C9.39070533 1.20039536 4.69539252 1.09889388 0 1 C0 0.67 0 0.34 0 0 Z " fill="#060B4A" transform="translate(32,407)"/>
<path d="M0 0 C0.66 0.33 1.32 0.66 2 1 C0.75 3.4375 0.75 3.4375 -1 6 C-2.32470984 6.3661048 -3.6597916 6.69548343 -5 7 C-6.3885533 7.73751497 -7.74855397 8.5303065 -9.08203125 9.36328125 C-9.84966797 9.83830078 -10.61730469 10.31332031 -11.40820312 10.80273438 C-12.20162109 11.30095703 -12.99503906 11.79917969 -13.8125 12.3125 C-29.37665563 22 -29.37665563 22 -32 22 C-32 21.34 -32 20.68 -32 20 C-30.86304688 19.39414062 -29.72609375 18.78828125 -28.5546875 18.1640625 C-18.5026507 12.73495764 -9.11453111 6.88718589 0 0 Z " fill="#070B38" transform="translate(270,248)"/>
<path d="M0 0 C0.99 0.33 1.98 0.66 3 1 C0.17477899 5.23783151 -2.3181996 8.45331636 -6.375 11.6015625 C-9.60620363 14.38226178 -12.26635615 17.74065541 -15 21 C-15.66 20.01 -16.32 19.02 -17 18 C-16.34 17.67 -15.68 17.34 -15 17 C-15 16.34 -15 15.68 -15 15 C-13.1875 12.875 -13.1875 12.875 -11 11 C-10.01 11 -9.02 11 -8 11 C-7.896875 10.401875 -7.79375 9.80375 -7.6875 9.1875 C-6.8858616 6.63683235 -6.09967436 5.63308005 -4 4 C-1.8125 3.3125 -1.8125 3.3125 0 3 C0 2.01 0 1.02 0 0 Z " fill="#33926A" transform="translate(373,232)"/>
<path d="M0 0 C2.111406 1.25971315 3.81683901 2.60002773 5.64453125 4.2421875 C6.32644531 4.85191406 7.00835937 5.46164063 7.7109375 6.08984375 C8.49339844 6.80011719 9.27585937 7.51039063 10.08203125 8.2421875 C11.06042969 9.12777344 12.03882813 10.01335937 13.046875 10.92578125 C15.73060905 13.35873521 18.40769419 15.7989053 21.08203125 18.2421875 C20.09203125 18.5721875 19.10203125 18.9021875 18.08203125 19.2421875 C17.65905762 18.78779297 17.23608398 18.33339844 16.80029297 17.86523438 C14.86853362 15.80848814 12.91341781 13.77551061 10.95703125 11.7421875 C10.291875 11.02675781 9.62671875 10.31132812 8.94140625 9.57421875 C5.02879969 5.43793156 5.02879969 5.43793156 -0.22265625 3.6484375 C-3.12208901 4.1163094 -3.12208901 4.1163094 -5.91796875 6.2421875 C-5.91796875 4.5921875 -5.91796875 2.9421875 -5.91796875 1.2421875 C-2.46849433 -0.97533177 -2.46849433 -0.97533177 0 0 Z " fill="#0F684E" transform="translate(381.91796875,226.7578125)"/>
<path d="M0 0 C0.33 0 0.66 0 1 0 C0.55028004 5.89209375 -1.18294544 9.72527829 -4.3125 14.6875 C-4.70373047 15.33783203 -5.09496094 15.98816406 -5.49804688 16.65820312 C-7.67788652 20.20450942 -9.88595439 23.18524481 -13 26 C-13 22.60343121 -12.29768646 21.36521729 -10.6640625 18.4375 C-10.17679688 17.55835938 -9.68953125 16.67921875 -9.1875 15.7734375 C-8.671875 14.85820312 -8.15625 13.94296875 -7.625 13 C-7.11710937 12.08476562 -6.60921875 11.16953125 -6.0859375 10.2265625 C-4.14383994 6.74100846 -2.2143125 3.32146875 0 0 Z " fill="#050934" transform="translate(45,366)"/>
<path d="M0 0 C0.33 0.66 0.66 1.32 1 2 C-0.11375 2.12375 -0.11375 2.12375 -1.25 2.25 C-4.08913716 2.77278891 -4.08913716 2.77278891 -5.8125 4.875 C-9.72015701 8.67100967 -14.58846495 10.17652326 -20 10.1875 C-21.485 10.0946875 -21.485 10.0946875 -23 10 C-22.67 9.01 -22.34 8.02 -22 7 C-20.14453125 6.0859375 -20.14453125 6.0859375 -17.8125 5.375 C-17.00425781 5.12621094 -16.19601563 4.87742187 -15.36328125 4.62109375 C-13 4 -13 4 -9.5 3.4375 C-8.675 3.293125 -7.85 3.14875 -7 3 C-6.67 2.34 -6.34 1.68 -6 1 C-2.9375 0.375 -2.9375 0.375 0 0 Z " fill="#13684C" transform="translate(243,325)"/>
<path d="M0 0 C-3.44966727 7.84015288 -11.1661897 13.20179277 -18 18 C-18.625 16.125 -18.625 16.125 -19 14 C-18.34 13.34 -17.68 12.68 -17 12 C-16.01 12 -15.02 12 -14 12 C-13.67 11.01 -13.34 10.02 -13 9 C-11.625 7.3125 -11.625 7.3125 -10 6 C-9.01 6 -8.02 6 -7 6 C-7 5.01 -7 4.02 -7 3 C-6.01 3 -5.02 3 -4 3 C-4 2.34 -4 1.68 -4 1 C-2 0 -2 0 0 0 Z " fill="#20694D" transform="translate(355,253)"/>
<path d="M0 0 C0.99 0.33 1.98 0.66 3 1 C1.10877399 4.47496984 -0.79383591 7.94343415 -2.70678711 11.40649414 C-3.67180938 13.15900534 -4.62797438 14.91638442 -5.58398438 16.67382812 C-6.19951172 17.78564453 -6.81503906 18.89746094 -7.44921875 20.04296875 C-8.28972778 21.57473755 -8.28972778 21.57473755 -9.1472168 23.13745117 C-11.12458858 26.19248927 -13.34678772 28.52194352 -16 31 C-15.67 29.35 -15.34 27.7 -15 26 C-14.34 26 -13.68 26 -13 26 C-12.67 24.35 -12.34 22.7 -12 21 C-11.34 21 -10.68 21 -10 21 C-9.75507812 20.34644531 -9.51015625 19.69289063 -9.2578125 19.01953125 C-7.64417702 15.14580385 -5.76833217 11.43067791 -3.875 7.6875 C-3.50246094 6.94693359 -3.12992188 6.20636719 -2.74609375 5.44335938 C-1.83255194 3.62798783 -0.91652513 1.81386718 0 0 Z " fill="#080A32" transform="translate(105,377)"/>
<path d="M0 0 C0.79921875 0.01804687 1.5984375 0.03609375 2.421875 0.0546875 C3.02515625 0.07789063 3.6284375 0.10109375 4.25 0.125 C0.68780321 3.08436349 -3.20818496 4.93527576 -7.375 6.875 C-8.055625 7.20371094 -8.73625 7.53242188 -9.4375 7.87109375 C-11.17950494 8.68701306 -12.96281342 9.41347373 -14.75 10.125 C-15.41 9.795 -16.07 9.465 -16.75 9.125 C-16.75 8.465 -16.75 7.805 -16.75 7.125 C-14.77 7.125 -12.79 7.125 -10.75 7.125 C-10.5025 6.34125 -10.255 5.5575 -10 4.75 C-7.86502086 0.2665438 -4.70064362 -0.13825422 0 0 Z " fill="#0F5740" transform="translate(254.75,319.875)"/>
<path d="M0 0 C0 3 0 3 -1.52880859 4.90112305 C-2.5780249 5.94586792 -2.5780249 5.94586792 -3.6484375 7.01171875 C-4.40640625 7.76904297 -5.164375 8.52636719 -5.9453125 9.30664062 C-6.74710937 10.09232422 -7.54890625 10.87800781 -8.375 11.6875 C-9.1690625 12.48478516 -9.963125 13.28207031 -10.78125 14.10351562 C-16.73321883 20 -16.73321883 20 -19 20 C-19 16 -19 16 -17.42578125 14.18359375 C-16.72839844 13.60738281 -16.03101563 13.03117188 -15.3125 12.4375 C-14.57902344 11.8290625 -13.84554688 11.220625 -13.08984375 10.59375 C-11 9 -11 9 -8.375 7.4375 C-5.04240461 5.42040279 -2.68870986 2.81376613 0 0 Z " fill="#2A8261" transform="translate(320,209)"/>
<path d="M0 0 C0.33 0 0.66 0 1 0 C1.81828163 5.39853336 -1.00989323 8.91550942 -3.8125 13.25 C-4.26431641 13.9821875 -4.71613281 14.714375 -5.18164062 15.46875 C-8.60674535 20.86891512 -8.60674535 20.86891512 -12 22 C-10.26153247 17.04288402 -7.60348281 12.68611031 -4.9375 8.1875 C-4.47794922 7.39923828 -4.01839844 6.61097656 -3.54492188 5.79882812 C-3.10599609 5.05439453 -2.66707031 4.30996094 -2.21484375 3.54296875 C-1.81386475 2.86258545 -1.41288574 2.18220215 -0.99975586 1.48120117 C-0.66983643 0.99240479 -0.33991699 0.5036084 0 0 Z " fill="#070B35" transform="translate(97,277)"/>
<path d="M0 0 C-3.4470259 1.98310379 -6.8008026 2.68068433 -10.6875 3.4375 C-20.61366366 5.05999953 -20.61366366 5.05999953 -29 10 C-29.66 9.01 -30.32 8.02 -31 7 C-29.865625 6.71125 -28.73125 6.4225 -27.5625 6.125 C-26.386875 5.75375 -25.21125 5.3825 -24 5 C-23.67 4.34 -23.34 3.68 -23 3 C-20.44543587 2.35093825 -17.96503697 1.82744853 -15.375 1.375 C-14.67503906 1.2409375 -13.97507812 1.106875 -13.25390625 0.96875 C-8.76624684 0.15281193 -4.55919059 -0.13163017 0 0 Z " fill="#349A78" transform="translate(346,155)"/>
<path d="M0 0 C0.33 0 0.66 0 1 0 C1.45438501 4.6027519 0.12721356 6.99790097 -2.375 10.8125 C-3.31472656 12.27623047 -3.31472656 12.27623047 -4.2734375 13.76953125 C-4.84320313 14.50558594 -5.41296875 15.24164063 -6 16 C-6.66 16 -7.32 16 -8 16 C-8.103125 16.763125 -8.20625 17.52625 -8.3125 18.3125 C-9.04364039 21.17059424 -9.76951913 22.15742885 -12 24 C-12 20.46512404 -11.13753305 19.14263493 -9.375 16.11328125 C-8.83359375 15.17548828 -8.2921875 14.23769531 -7.734375 13.27148438 C-6.87585938 11.80678711 -6.87585938 11.80678711 -6 10.3125 C-5.42765625 9.32443359 -4.8553125 8.33636719 -4.265625 7.31835938 C-2.84947536 4.87550124 -1.42741542 2.43628682 0 0 Z " fill="#080B37" transform="translate(204,92)"/>
<path d="M0 0 C0 0.66 0 1.32 0 2 C-1.55575978 2.84584998 -3.1199612 3.67618399 -4.6875 4.5 C-5.99267578 5.19609375 -5.99267578 5.19609375 -7.32421875 5.90625 C-10.11788829 7.04818792 -12.01629113 7.21504208 -15 7 C-14 4 -14 4 -11.85546875 2.578125 C-10.97503906 2.13984375 -10.09460938 1.7015625 -9.1875 1.25 C-8.31480469 0.80140625 -7.44210937 0.3528125 -6.54296875 -0.109375 C-3.80064256 -1.06982104 -2.6686569 -1.02018585 0 0 Z " fill="#239671" transform="translate(271,313)"/>
<path d="M0 0 C0.33 0 0.66 0 1 0 C1.34316564 3.23147644 1.23597951 4.6500401 -0.609375 7.38671875 C-1.31578125 8.14597656 -2.0221875 8.90523438 -2.75 9.6875 C-3.44609375 10.45449219 -4.1421875 11.22148437 -4.859375 12.01171875 C-6.89251905 13.90016824 -8.4777758 14.91266319 -11 16 C-12.11375 16.556875 -12.11375 16.556875 -13.25 17.125 C-13.8275 17.41375 -14.405 17.7025 -15 18 C-14.195625 17.071875 -13.39125 16.14375 -12.5625 15.1875 C-8.89566392 10.92414514 -5.37742121 6.54342372 -1.85546875 2.16015625 C-1.24316406 1.44730469 -0.63085938 0.73445313 0 0 Z " fill="#245B49" transform="translate(267,267)"/>
<path d="M0 0 C0.8971875 0.309375 0.8971875 0.309375 1.8125 0.625 C0.14823627 2.5270157 -1.51646993 4.42861422 -3.18359375 6.328125 C-4.47640372 7.80994227 -5.76092723 9.29904977 -7.03515625 10.796875 C-10.18704538 14.48216075 -13.23919355 17.7535044 -17.1875 20.625 C-15.20561591 15.93562399 -11.67407671 12.77350422 -8.18359375 9.16015625 C-6.06497517 6.46938628 -5.77144688 4.91178674 -5.1875 1.625 C-2.1875 -0.375 -2.1875 -0.375 0 0 Z " fill="#28936F" transform="translate(273.1875,265.375)"/>
<path d="M0 0 C0.60593994 0.19835449 1.21187988 0.39670898 1.83618164 0.60107422 C-0.70904095 2.47991451 -3.2773395 4.32437784 -5.85131836 6.16357422 C-6.57254883 6.69660156 -7.2937793 7.22962891 -8.03686523 7.77880859 C-13.48800266 11.63691955 -13.48800266 11.63691955 -17.18334961 11.44091797 C-17.8369043 11.16376953 -18.49045898 10.88662109 -19.16381836 10.60107422 C-18.83381836 9.94107422 -18.50381836 9.28107422 -18.16381836 8.60107422 C-17.43291992 8.47990234 -16.70202148 8.35873047 -15.94897461 8.23388672 C-11.40669768 7.20184063 -8.36301492 4.0866992 -4.78491211 1.21826172 C-2.16381836 -0.39892578 -2.16381836 -0.39892578 0 0 Z " fill="#040727" transform="translate(275.163818359375,225.39892578125)"/>
<path d="M0 0 C3 0 3 0 4.5625 1.5 C6.13498426 4.23475523 6.7261103 6.83755614 7.390625 9.90234375 C8.04457119 12.15342775 8.97003961 13.87786463 10.1875 15.875 C11.0846875 17.421875 11.0846875 17.421875 12 19 C11.67 19.66 11.34 20.32 11 21 C9.34587239 18.2549092 7.70319166 15.5031388 6.0625 12.75 C5.59392578 11.97269531 5.12535156 11.19539063 4.64257812 10.39453125 C4.19462891 9.64042969 3.74667969 8.88632812 3.28515625 8.109375 C2.66459351 7.07248535 2.66459351 7.07248535 2.03149414 6.01464844 C1.00584929 4.01142447 0.4502987 2.19763 0 0 Z " fill="#020523" transform="translate(327,357)"/>
<path d="M0 0 C1.32 0.33 2.64 0.66 4 1 C-0.95 4.3 -5.9 7.6 -11 11 C-11.66 10.67 -12.32 10.34 -13 10 C-12.67 9.01 -12.34 8.02 -12 7 C-10.02 6.67 -8.04 6.34 -6 6 C-6 5.01 -6 4.02 -6 3 C-4.02 2.67 -2.04 2.34 0 2 C0 1.34 0 0.68 0 0 Z " fill="#175C40" transform="translate(309,289)"/>
<path d="M0 0 C0.33 1.32 0.66 2.64 1 4 C0.01 4 -0.98 4 -2 4 C-2.020625 4.70125 -2.04125 5.4025 -2.0625 6.125 C-3.44979209 10.3793624 -6.51624172 12.35307139 -10 15 C-10.66 14.67 -11.32 14.34 -12 14 C-10.18804029 11.85370835 -8.37545906 9.70794722 -6.5625 7.5625 C-6.04623047 6.95083984 -5.52996094 6.33917969 -4.99804688 5.70898438 C-1.11328125 1.11328125 -1.11328125 1.11328125 0 0 Z " fill="#175B43" transform="translate(300,227)"/>
<path d="M0 0 C1.12587689 2.76351601 1.05900595 3.8414215 0 6.6875 C-2 9 -2 9 -5.6875 9.8125 C-6.780625 9.874375 -7.87375 9.93625 -9 10 C-8.06409496 8.8944811 -7.12620142 7.79064547 -6.1875 6.6875 C-5.66542969 6.07261719 -5.14335937 5.45773437 -4.60546875 4.82421875 C-3.12827531 3.14575321 -1.59960869 1.56117966 0 0 Z " fill="#28735B" transform="translate(232,306)"/>
<path d="M0 0 C0.66 0 1.32 0 2 0 C1.45423097 8.10036134 0.45852964 16.01348818 -1 24 C-1.33 24 -1.66 24 -2 24 C-1.86076462 20.74968216 -1.71245815 17.49983939 -1.5625 14.25 C-1.52318359 13.32960937 -1.48386719 12.40921875 -1.44335938 11.4609375 C-1.40146484 10.57148438 -1.35957031 9.68203125 -1.31640625 8.765625 C-1.27974854 7.94868164 -1.24309082 7.13173828 -1.20532227 6.29003906 C-1.00865725 4.0965577 -0.59699406 2.11603587 0 0 Z " fill="#327F5F" transform="translate(418,200)"/>
<path d="M0 0 C0.66 0.99 1.32 1.98 2 3 C0.90700499 4.98535806 -0.19976236 6.96313943 -1.3125 8.9375 C-1.92738281 10.03964844 -2.54226562 11.14179688 -3.17578125 12.27734375 C-5 15 -5 15 -8 16 C-6.57250019 12.20950293 -4.83763458 8.72877544 -2.875 5.1875 C-2.33617187 4.21167969 -1.79734375 3.23585937 -1.2421875 2.23046875 C-0.83226562 1.49441406 -0.42234375 0.75835937 0 0 Z " fill="#080B34" transform="translate(162,164)"/>
<path d="M0 0 C3.80635497 3.20760251 7.54563567 6.40746109 11 10 C10.1875 11.9375 10.1875 11.9375 9 14 C8.01 14.33 7.02 14.66 6 15 C6.185625 13.7315625 6.185625 13.7315625 6.375 12.4375 C5.90152307 8.09729484 4.27706576 6.5625398 1.3125 3.515625 C0 2 0 2 0 0 Z " fill="#0E5B48" transform="translate(329,177)"/>
<path d="M0 0 C0.33 0 0.66 0 1 0 C1.3466079 4.28253314 0.42299356 6.61664308 -1.8125 10.25 C-2.33457031 11.12140625 -2.85664063 11.9928125 -3.39453125 12.890625 C-5 15 -5 15 -8 16 C-6.44584521 10.0942118 -3.40465533 5.02261107 0 0 Z " fill="#090B33" transform="translate(175,142)"/>
<path d="M0 0 C5.35240973 3.03785417 7.90834729 5.71842661 11 11 C11.98244845 12.34631825 12.97676564 13.68441297 14 15 C9.95190965 13.41102996 7.62436647 10.69374052 4.75 7.5 C4.29109375 7.00113281 3.8321875 6.50226563 3.359375 5.98828125 C0 2.25897507 0 2.25897507 0 0 Z " fill="#083E37" transform="translate(321,170)"/>
<path d="M0 0 C0 3.57493773 -1.12816094 4.98049241 -3.421875 7.63671875 C-6.04245294 9.90053484 -8.63843232 10.34086908 -12 11 C-8.77716022 5.97616152 -6.67275654 3.32067313 -1 1 C-0.67 0.67 -0.34 0.34 0 0 Z " fill="#227057" transform="translate(280,256)"/>
<path d="M0 0 C0.33 0 0.66 0 1 0 C2.33257403 12.66970387 2.33257403 12.66970387 1 18 C0.34 18 -0.32 18 -1 18 C-1.18451025 5.33029613 -1.18451025 5.33029613 0 0 Z " fill="#308B6A" transform="translate(414,217)"/>
<path d="M0 0 C0.66 0.33 1.32 0.66 2 1 C0.44233138 2.44273385 -1.12135957 3.87896708 -2.6875 5.3125 C-3.99267578 6.51326172 -3.99267578 6.51326172 -5.32421875 7.73828125 C-7.78170312 9.81548337 -10.19503316 11.43831576 -13 13 C-13 12.01 -13 11.02 -13 10 C-10.91796875 8.02734375 -10.91796875 8.02734375 -8.1875 5.9375 C-7.29417969 5.24527344 -6.40085937 4.55304688 -5.48046875 3.83984375 C-3.68890909 2.51098611 -1.85596622 1.23731081 0 0 Z " fill="#050828" transform="translate(290,212)"/>
<path d="M0 0 C0.33 0.99 0.66 1.98 1 3 C-1.23308066 7.38796005 -3.87412428 10.49961079 -8.375 12.5 C-9.24125 12.665 -10.1075 12.83 -11 13 C-10.62488281 12.56429688 -10.24976563 12.12859375 -9.86328125 11.6796875 C-6.54140223 7.81392401 -3.25357073 3.92342352 0 0 Z " fill="#265B4A" transform="translate(244,293)"/>
<path d="M0 0 C1.125 3.75 1.125 3.75 0 6 C-0.66 6 -1.32 6 -2 6 C-2.0825 6.7425 -2.165 7.485 -2.25 8.25 C-3.1396946 11.51221354 -4.48503749 12.80954878 -7 15 C-7 11.06025045 -5.52210525 9.17063907 -3.5 5.8125 C-2.8503125 4.72582031 -2.200625 3.63914063 -1.53125 2.51953125 C-1.0259375 1.68808594 -0.520625 0.85664062 0 0 Z " fill="#070B33" transform="translate(184,127)"/>
<path d="M0 0 C-2.18614424 2.18614424 -3.53879949 2.68256535 -6.4375 3.625 C-7.61119141 4.01558594 -7.61119141 4.01558594 -8.80859375 4.4140625 C-11 5 -11 5 -14 5 C-13.67 4.01 -13.34 3.02 -13 2 C-8.60470084 0.01165038 -4.77962147 -0.19118486 0 0 Z " fill="#064033" transform="translate(224,335)"/>
<path d="M0 0 C-1.4317521 5.01113235 -3.98445693 6.94469549 -8 10 C-8.33 9.01 -8.66 8.02 -9 7 C-8.34 6.67 -7.68 6.34 -7 6 C-7 5.34 -7 4.68 -7 4 C-3.58823529 0 -3.58823529 0 0 0 Z " fill="#277352" transform="translate(365,243)"/>
<path d="M0 0 C0 0.66 0 1.32 0 2 C-5.08086796 2.84681133 -9.84828377 3.09038099 -15 3 C-12.22199328 1.14799552 -10.66558555 0.5142048 -7.5 -0.1875 C-6.7265625 -0.36667969 -5.953125 -0.54585938 -5.15625 -0.73046875 C-3 -1 -3 -1 0 0 Z " fill="#030426" transform="translate(149,352)"/>
<path d="M0 0 C0.33 1.32 0.66 2.64 1 4 C-1.64 5.98 -4.28 7.96 -7 10 C-7.33 8.68 -7.66 7.36 -8 6 C-7.34 5.34 -6.68 4.68 -6 4 C-5.01 4 -4.02 4 -3 4 C-2.67 3.01 -2.34 2.02 -2 1 C-1.34 0.67 -0.68 0.34 0 0 Z " fill="#267053" transform="translate(344,261)"/>
<path d="M0 0 C0.99 0.33 1.98 0.66 3 1 C-0.3 3.97 -3.6 6.94 -7 10 C-7.33 9.01 -7.66 8.02 -8 7 C-5.6875 4.5 -5.6875 4.5 -3 2 C-2.01 2 -1.02 2 0 2 C0 1.34 0 0.68 0 0 Z " fill="#04082B" transform="translate(194,330)"/>
<path d="M0 0 C1.65 0.33 3.3 0.66 5 1 C1.72291137 4.67033927 -1.71522208 6.69281189 -6 9 C-6 8.01 -6 7.02 -6 6 C-5.34 6 -4.68 6 -4 6 C-4 5.01 -4 4.02 -4 3 C-2.68 3 -1.36 3 0 3 C0 2.01 0 1.02 0 0 Z " fill="#195D41" transform="translate(319,280)"/>
<path d="M0 0 C0.66 0.33 1.32 0.66 2 1 C-1.3 4.3 -4.6 7.6 -8 11 C-8.66 10.34 -9.32 9.68 -10 9 C-8.71142987 7.68445979 -7.41904109 6.37265903 -6.125 5.0625 C-5.04605469 3.96615234 -5.04605469 3.96615234 -3.9453125 2.84765625 C-2 1 -2 1 0 0 Z " fill="#04082C" transform="translate(302,201)"/>
<path d="M0 0 C8 10.10526316 8 10.10526316 8 14 C6.140625 13.8046875 6.140625 13.8046875 4 13 C2.734375 10.8203125 2.734375 10.8203125 1.75 8.125 C1.41484375 7.24070313 1.0796875 6.35640625 0.734375 5.4453125 C0 3 0 3 0 0 Z " fill="#040938" transform="translate(230,185)"/>
<path d="M0 0 C-0.99 0.33 -1.98 0.66 -3 1 C-3 1.66 -3 2.32 -3 3 C-6.3 3.33 -9.6 3.66 -13 4 C-13 3.34 -13 2.68 -13 2 C-11.21089097 1.47044766 -9.41860852 0.9516063 -7.625 0.4375 C-6.62726563 0.14746094 -5.62953125 -0.14257812 -4.6015625 -0.44140625 C-2 -1 -2 -1 0 0 Z " fill="#2D8667" transform="translate(368,148)"/>
<path d="M0 0 C-2.74953946 2.74953946 -5.2350197 3.17042807 -9 4 C-11.9375 3.625 -11.9375 3.625 -14 3 C-13.67 2.34 -13.34 1.68 -13 1 C-11.515 1.99 -11.515 1.99 -10 3 C-10 2.34 -10 1.68 -10 1 C-6.78548731 -0.60725635 -3.56387464 -0.05748185 0 0 Z " fill="#082E2B" transform="translate(210,340)"/>
<path d="M0 0 C1 3 1 3 -0.125 5.6875 C-2 8 -2 8 -4.6875 8.3125 C-5.450625 8.209375 -6.21375 8.10625 -7 8 C-6.02133662 6.85373678 -5.04205413 5.70800212 -4.0625 4.5625 C-3.51722656 3.92441406 -2.97195312 3.28632813 -2.41015625 2.62890625 C-1.63204305 1.73008851 -0.84063472 0.84063472 0 0 Z " fill="#1A694F" transform="translate(215,323)"/>
<path d="M0 0 C0.66 0.33 1.32 0.66 2 1 C0.92643323 2.15498897 -0.15929788 3.29867867 -1.25 4.4375 C-1.85328125 5.07558594 -2.4565625 5.71367187 -3.078125 6.37109375 C-5.10048016 8.08516306 -6.41270605 8.59358878 -9 9 C-8.375 6.6875 -8.375 6.6875 -7 4 C-3.9375 2.25 -3.9375 2.25 -1 1 C-0.67 0.67 -0.34 0.34 0 0 Z " fill="#279572" transform="translate(223,319)"/>
<path d="M0 0 C3.3 0.33 6.6 0.66 10 1 C10 1.66 10 2.32 10 3 C3.375 4.125 3.375 4.125 0 3 C0 2.01 0 1.02 0 0 Z " fill="#030329" transform="translate(22,406)"/>
<path d="M0 0 C1.32 0.33 2.64 0.66 4 1 C2.68 2.32 1.36 3.64 0 5 C1.98 5 3.96 5 6 5 C2.5647952 7.29013653 1.014669 7.17842973 -3 7 C-1.125 2.25 -1.125 2.25 0 0 Z " fill="#1F906B" transform="translate(208,331)"/>
<path d="M0 0 C0.66 1.32 1.32 2.64 2 4 C-0.97 6.475 -0.97 6.475 -4 9 C-4.66 8.34 -5.32 7.68 -6 7 C-4.02 4.69 -2.04 2.38 0 0 Z " fill="#2B6250" transform="translate(251,285)"/>
<path d="M0 0 C0.66 0 1.32 0 2 0 C1.55530671 5.03985731 -0.71343362 7.37634988 -4 11 C-4.66 10.67 -5.32 10.34 -6 10 C-5.38125 9.278125 -4.7625 8.55625 -4.125 7.8125 C-2.16333647 5.21618062 -1.04684 3.05328334 0 0 Z " fill="#02041D" transform="translate(272,247)"/>
<path d="M0 0 C-1.62249941 0.83819158 -3.24808497 1.6704116 -4.875 2.5 C-6.23238281 3.19609375 -6.23238281 3.19609375 -7.6171875 3.90625 C-10 5 -10 5 -12 5 C-12 4.34 -12 3.68 -12 3 C-10.75823305 2.29773859 -9.50614401 1.61370891 -8.25 0.9375 C-7.20585937 0.36322266 -7.20585937 0.36322266 -6.140625 -0.22265625 C-3.63859372 -1.1312406 -2.4667645 -0.88336837 0 0 Z " fill="#0E553A" transform="translate(271,315)"/>
<path d="M0 0 C0.36625971 4.51720311 0.36625971 4.51720311 -1.375 6.8125 C-3 8 -3 8 -5 8 C-3.91891892 0 -3.91891892 0 0 0 Z " fill="#1C6E50" transform="translate(335,192)"/>
<path d="M0 0 C0.66 0 1.32 0 2 0 C2.8125 2.625 2.8125 2.625 3 6 C1.57631048 8.3586498 -0.05448008 10.00702837 -2 12 C-2.33 10.68 -2.66 9.36 -3 8 C-1.68 7.01 -0.36 6.02 1 5 C0.67 3.35 0.34 1.7 0 0 Z " fill="#2A9873" transform="translate(338,184)"/>
<path d="M0 0 C0.99 0.66 1.98 1.32 3 2 C0.16569547 5.2542015 -1.68607774 6.5206753 -6 7 C-4.02 4.69 -2.04 2.38 0 0 Z " fill="#236450" transform="translate(222,316)"/>
<path d="M0 0 C0 0.99 0 1.98 0 3 C-2 4.6875 -2 4.6875 -4 6 C-3.67 8.31 -3.34 10.62 -3 13 C-5.47034427 11.1472418 -5.97109638 10.15094114 -6.5625 7.0625 C-6 4 -6 4 -3 1.625 C-2.01 1.08875 -1.02 0.5525 0 0 Z " fill="#01031C" transform="translate(310,310)"/>
<path d="M0 0 C0.33 0 0.66 0 1 0 C1.3125 2.25 1.3125 2.25 1 5 C-1.5 7.3125 -1.5 7.3125 -4 9 C-4.66 8.67 -5.32 8.34 -6 8 C-5.02471263 6.66382648 -4.04466681 5.3311249 -3.0625 4 C-2.24458984 2.88625 -2.24458984 2.88625 -1.41015625 1.75 C-0.94480469 1.1725 -0.47945313 0.595 0 0 Z " fill="#175040" transform="translate(280,251)"/>
<path d="M0 0 C0.33 1.32 0.66 2.64 1 4 C0.34 4 -0.32 4 -1 4 C-1.103125 4.763125 -1.20625 5.52625 -1.3125 6.3125 C-2.04364039 9.17059424 -2.76951913 10.15742885 -5 12 C-5 8.55639368 -4.20408468 7.25204608 -2.5 4.3125 C-2.0359375 3.50425781 -1.571875 2.69601563 -1.09375 1.86328125 C-0.7328125 1.24839844 -0.371875 0.63351563 0 0 Z " fill="#06082B" transform="translate(197,104)"/>
<path d="M0 0 C-0.125 1.875 -0.125 1.875 -1 4 C-4.0625 5.25 -4.0625 5.25 -7 6 C-6.75 4.125 -6.75 4.125 -6 2 C-3.85331506 0.61504198 -2.56128588 0 0 0 Z " fill="#1B7452" transform="translate(278,308)"/>
<path d="M0 0 C4.42679007 1.47559669 4.91432696 3.90057368 7 8 C7 8.66 7 9.32 7 10 C6.34 10 5.68 10 5 10 C3.7109375 8.3203125 3.7109375 8.3203125 2.375 6.125 C1.92898437 5.40570313 1.48296875 4.68640625 1.0234375 3.9453125 C0 2 0 2 0 0 Z " fill="#202857" transform="translate(238,89)"/>
<path d="M0 0 C-3.1749094 1.9078584 -5.10585211 2.1609041 -8.75 1.625 C-9.54921875 1.51414062 -10.3484375 1.40328125 -11.171875 1.2890625 C-11.77515625 1.19367188 -12.3784375 1.09828125 -13 1 C-13 0.67 -13 0.34 -13 0 C-8.38926889 -1.29676812 -4.66159911 -0.71109139 0 0 Z " fill="#07092B" transform="translate(89,408)"/>
<path d="M0 0 C0.99 0.33 1.98 0.66 3 1 C3.94921875 3.06640625 3.94921875 3.06640625 4.6875 5.5625 C4.93886719 6.38878906 5.19023437 7.21507812 5.44921875 8.06640625 C5.63097656 8.70449219 5.81273437 9.34257812 6 10 C2.51668565 6.98112756 1.20842856 4.43090471 0 0 Z " fill="#000110" transform="translate(311,330)"/>
<path d="M0 0 C0.66 0.33 1.32 0.66 2 1 C0.68 3.31 -0.64 5.62 -2 8 C-2.66 8 -3.32 8 -4 8 C-3.50168276 4.31245243 -2.89932357 2.39509338 0 0 Z " fill="#0A0E3F" transform="translate(116,246)"/>
<path d="M0 0 C-1.98 1.32 -3.96 2.64 -6 4 C-6.66 3.67 -7.32 3.34 -8 3 C-7.67 2.01 -7.34 1.02 -7 0 C-3.86650268 -1.04449911 -3.01031744 -0.93423645 0 0 Z " fill="#125137" transform="translate(304,296)"/>
<path d="M0 0 C1.32 0.33 2.64 0.66 4 1 C1.69 2.65 -0.62 4.3 -3 6 C-3.33 4.68 -3.66 3.36 -4 2 C-2.68 2 -1.36 2 0 2 C0 1.34 0 0.68 0 0 Z " fill="#1C5B41" transform="translate(329,274)"/>
<path d="M0 0 C0.33 0.66 0.66 1.32 1 2 C-1.52788007 4.79872437 -3.20411134 6.45773019 -7 7 C-4.66666667 4.66666667 -2.33333333 2.33333333 0 0 Z " fill="#1A5943" transform="translate(207,331)"/>
<path d="M0 0 C3.81684226 1.55500981 6.19195732 4.03595495 9 7 C6.62051228 6.82374165 5.29774151 6.30280227 3.62109375 4.59765625 C2.37884514 3.09350908 1.18623944 1.54870149 0 0 Z " fill="#0F6A57" transform="translate(394,239)"/>
<path d="M0 0 C1.67542976 0.28604898 3.34385343 0.61781233 5 1 C4.01 1.33 3.02 1.66 2 2 C0.79117904 4.00016466 0.79117904 4.00016466 0 6 C-0.33 6 -0.66 6 -1 6 C-1.042721 4.33388095 -1.04063832 2.66617115 -1 1 C-0.67 0.67 -0.34 0.34 0 0 Z " fill="#247251" transform="translate(377,227)"/>
<path d="M0 0 C0.99 0.33 1.98 0.66 3 1 C4.1875 4.0625 4.1875 4.0625 5 7 C4.34 7 3.68 7 3 7 C3 6.34 3 5.68 3 5 C2.34 5 1.68 5 1 5 C0.67 3.35 0.34 1.7 0 0 Z " fill="#202859" transform="translate(269,142)"/>
<path d="M0 0 C0.33 0.66 0.66 1.32 1 2 C0.195625 2.12375 -0.60875 2.2475 -1.4375 2.375 C-2.7059375 2.684375 -2.7059375 2.684375 -4 3 C-4.33 3.66 -4.66 4.32 -5 5 C-6.65 5 -8.3 5 -10 5 C-6.92000054 1.32769295 -4.7517398 0.43197635 0 0 Z " fill="#147D5C" transform="translate(243,325)"/>
<path d="M0 0 C0.33 0.99 0.66 1.98 1 3 C-0.98 4.32 -2.96 5.64 -5 7 C-4.60196439 4.11424181 -4.20990931 3.17810487 -1.9375 1.25 C-1.298125 0.8375 -0.65875 0.425 0 0 Z " fill="#080F37" transform="translate(209,317)"/>
<path d="M0 0 C0.66 0.99 1.32 1.98 2 3 C-0.375 4.5625 -0.375 4.5625 -3 6 C-3.66 5.67 -4.32 5.34 -5 5 C-3.35 3.35 -1.7 1.7 0 0 Z " fill="#235B4A" transform="translate(228,310)"/>
<path d="M0 0 C0 3 0 3 -2.5 5.6875 C-3.325 6.450625 -4.15 7.21375 -5 8 C-5.33 7.01 -5.66 6.02 -6 5 C-4.02 3.35 -2.04 1.7 0 0 Z " fill="#358167" transform="translate(258,280)"/>
<path d="M0 0 C0.66 0.33 1.32 0.66 2 1 C-0.475 4.465 -0.475 4.465 -3 8 C-3.33 6.68 -3.66 5.36 -4 4 C-2.0625 1.75 -2.0625 1.75 0 0 Z " fill="#289570" transform="translate(295,236)"/>
<path d="M0 0 C0.99 0.33 1.98 0.66 3 1 C0.525 4.465 0.525 4.465 -2 8 C-2.33 6.68 -2.66 5.36 -3 4 C-2.01 3.67 -1.02 3.34 0 3 C0 2.01 0 1.02 0 0 Z " fill="#29694C" transform="translate(373,232)"/>
</svg>
